<svg xmlns="http://www.w3.org/2000/svg" width="76.602" height="83.475" viewBox="0 0 76.602 83.475">
  <path id="habitacion-de-hotel" d="M81.738,42.952A1.263,1.263,0,0,1,83,44.217v5.159L85.193,51.2a1.265,1.265,0,0,1-1.619,1.943l-2.645-2.2a1.263,1.263,0,0,1-.456-.971V44.217a1.265,1.265,0,0,1,1.265-1.265Zm7.553,6.574a7.553,7.553,0,1,0-7.553,7.554A7.562,7.562,0,0,0,89.291,49.527Zm-17.636,0A10.083,10.083,0,1,0,81.738,39.445,10.093,10.093,0,0,0,71.655,49.527Zm45.854,49.232V56.946L81.738,27.8,45.967,56.946V98.759a3.944,3.944,0,0,0,3.939,3.94h.768V87.178a6.3,6.3,0,0,1,5.55-6.244V68.978a6.613,6.613,0,0,1,6.607-6.606h37.816a6.612,6.612,0,0,1,6.606,6.606V80.934a6.3,6.3,0,0,1,5.549,6.244V102.7h.768a3.944,3.944,0,0,0,3.939-3.94Zm-7.736,7.09H53.7a.5.5,0,0,1-.5-.5V98.41h57.071v6.94A.5.5,0,0,1,109.773,105.848ZM56.963,83.42h49.551a3.763,3.763,0,0,1,3.76,3.758v8.7H53.2v-8.7A3.764,3.764,0,0,1,56.963,83.42Zm20.424-2.53H64.809V75.327a2.492,2.492,0,0,1,2.49-2.489h7.6a2.491,2.491,0,0,1,2.489,2.489Zm21.28,0H86.089V75.327a2.493,2.493,0,0,1,2.491-2.489h7.6a2.492,2.492,0,0,1,2.489,2.489V80.89Zm6.056,0H101.2V75.327a5.024,5.024,0,0,0-5.019-5.018h-7.6a5.024,5.024,0,0,0-5.021,5.018V80.89H79.917V75.327A5.024,5.024,0,0,0,74.9,70.309H67.3a5.023,5.023,0,0,0-5.019,5.018V80.89H58.753V68.979A4.081,4.081,0,0,1,62.831,64.9h37.816a4.08,4.08,0,0,1,4.076,4.076V80.89Zm14.85-25.525L82.537,25.188a1.261,1.261,0,0,0-1.6,0L43.9,55.365a1.271,1.271,0,0,0-.467.981V98.759a6.477,6.477,0,0,0,6.469,6.469h.768v.122a3.032,3.032,0,0,0,3.028,3.029h56.072a3.033,3.033,0,0,0,3.029-3.029v-.122h.768a6.476,6.476,0,0,0,6.469-6.469V56.346a1.266,1.266,0,0,0-.465-.981Z" transform="translate(-43.437 -24.904)" fill="#fec190" fill-rule="evenodd"/>
</svg>
