<svg xmlns="http://www.w3.org/2000/svg" xmlns:xlink="http://www.w3.org/1999/xlink" width="102" height="102" viewBox="0 0 102 102">
  <defs>
    <filter id="Elipse_13737" x="0" y="0" width="102" height="102" filterUnits="userSpaceOnUse">
      <feOffset dy="3" input="SourceAlpha"/>
      <feGaussianBlur stdDeviation="3" result="blur"/>
      <feFlood flood-opacity="0.161"/>
      <feComposite operator="in" in2="blur"/>
      <feComposite in="SourceGraphic"/>
    </filter>
  </defs>
  <g id="Grupo_1190486" data-name="Grupo 1190486" transform="translate(-800.5 -2427.587)">
    <g id="Grupo_1189086" data-name="Grupo 1189086" transform="translate(809.5 2433.587)">
      <g transform="matrix(1, 0, 0, 1, -9, -6)" filter="url(#Elipse_13737)">
        <circle id="Elipse_13737-2" data-name="Elipse 13737" cx="42" cy="42" r="42" transform="translate(9 6)" fill="#fff"/>
      </g>
    </g>
    <g id="icons" transform="translate(830.174 2454.963)">
      <path id="Trazado_1091050" data-name="Trazado 1091050" d="M3,25.92V8.308A2.064,2.064,0,0,1,5.064,6.244H7.995" transform="translate(-3 -3.678)" fill="none" stroke="#c5a07a" stroke-miterlimit="10" stroke-width="2"/>
      <ellipse id="Elipse_13743" data-name="Elipse 13743" cx="9.2" cy="6.014" rx="9.2" ry="6.014" transform="translate(2.854 0)" fill="none" stroke="#c5a07a" stroke-miterlimit="10" stroke-width="2"/>
      <ellipse id="Elipse_13744" data-name="Elipse 13744" cx="9.2" cy="6.014" rx="9.2" ry="6.014" transform="translate(21.399 0)" fill="none" stroke="#c5a07a" stroke-miterlimit="10" stroke-width="2"/>
      <path id="Trazado_1091051" data-name="Trazado 1091051" d="M54.038,6.244h3.056a2.064,2.064,0,0,1,2.064,2.064v4.375" transform="translate(-16.506 -3.678)" fill="none" stroke="#c5a07a" stroke-miterlimit="10" stroke-width="2"/>
      <path id="Trazado_1091052" data-name="Trazado 1091052" d="M5.639,29.906,44.964,18h.688V45.974a2.064,2.064,0,0,1-2.064,2.064H5.064A2.064,2.064,0,0,1,3,45.974V32.939a3.053,3.053,0,0,1,5.175-2.195L18.666,40.888,45.652,19.032" transform="translate(-3 -6.789)" fill="none" stroke="#c5a07a" stroke-miterlimit="10" stroke-width="2"/>
    </g>
  </g>
</svg>
