<svg xmlns="http://www.w3.org/2000/svg" xmlns:xlink="http://www.w3.org/1999/xlink" width="102" height="102" viewBox="0 0 102 102">
  <defs>
    <filter id="Elipse_13737" x="0" y="0" width="102" height="102" filterUnits="userSpaceOnUse">
      <feOffset dy="3" input="SourceAlpha"/>
      <feGaussianBlur stdDeviation="3" result="blur"/>
      <feFlood flood-opacity="0.161"/>
      <feComposite operator="in" in2="blur"/>
      <feComposite in="SourceGraphic"/>
    </filter>
  </defs>
  <g id="Grupo_1190484" data-name="Grupo 1190484" transform="translate(-165.5 -2408.587)">
    <g id="Grupo_1185634" data-name="Grupo 1185634" transform="translate(174.5 2414.587)">
      <g transform="matrix(1, 0, 0, 1, -9, -6)" filter="url(#Elipse_13737)">
        <circle id="Elipse_13737-2" data-name="Elipse 13737" cx="42" cy="42" r="42" transform="translate(9 6)" fill="#fff"/>
      </g>
    </g>
    <g id="XMLID_1880_" transform="translate(189.078 2431.89)">
      <g id="XMLID_621_" transform="translate(0 0)">
        <path id="XMLID_622_" d="M222.291,356.27a.991.991,0,1,0,.7-.291A1,1,0,0,0,222.291,356.27Z" transform="translate(-199.986 -320.68)" fill="#c5a07a"/>
        <path id="XMLID_1486_" d="M448.992,403a.992.992,0,1,0,.7.29A1,1,0,0,0,448.992,403Z" transform="translate(-403.576 -363.039)" fill="#c5a07a"/>
        <path id="XMLID_1777_" d="M49.778,26.376H45.415V18.057a4.973,4.973,0,0,0-3.888-4.83l-3.241-.709A5.191,5.191,0,0,0,40.107,8.57V5.2a5.2,5.2,0,0,0-10.4,0V8.57a5.191,5.191,0,0,0,1.816,3.945l-3.24.711a4.974,4.974,0,0,0-3.885,4.83V22.41H19.039a.992.992,0,0,0-.992.992v2.975H11.106V23.6h4.165a.992.992,0,0,0,.992-.992V11.9a.992.992,0,0,0-.992-.992H.992A.992.992,0,0,0,0,11.9V22.608a.992.992,0,0,0,.992.992H5.156v2.776H.992A.992.992,0,0,0,0,27.368v4.76a.992.992,0,0,0,.992.992H4.363V49.778a.992.992,0,0,0,.992.992H45.415a.992.992,0,0,0,.992-.992V44.919a.992.992,0,0,0-1.983,0v3.867H6.346v-11.5H19.039a.992.992,0,1,0,0-1.983H6.346v-2.18H44.424v3.867a.992.992,0,0,0,1.983,0V33.119h3.371a.992.992,0,0,0,.992-.992v-4.76A.992.992,0,0,0,49.778,26.376ZM31.685,7.868H33.05a9.123,9.123,0,0,0,5.073-1.525V8.57a3.219,3.219,0,0,1-6.438,0Zm3.219,5.9a5.206,5.206,0,0,0,.905-.08l-.917,2.065-.919-2.07A5.217,5.217,0,0,0,34.9,13.773Zm0-11.789a3.224,3.224,0,0,1,2.99,2.029A7.152,7.152,0,0,1,33.05,5.885H31.685V5.2A3.223,3.223,0,0,1,34.9,1.983ZM26.377,18.055A2.979,2.979,0,0,1,28.7,15.163l3.422-.751L33.986,18.6a.992.992,0,0,0,1.813,0l1.861-4.191,3.444.753a2.979,2.979,0,0,1,2.328,2.893v8.319H32.723V23.4a.992.992,0,0,0-.992-.992H26.377ZM20.03,24.393H30.74v1.983H20.03ZM1.983,12.891h12.3v8.726H11.09a2.975,2.975,0,0,0-5.918,0H1.983ZM7.14,21.922a.992.992,0,0,1,1.983,0v4.455H7.14Zm41.647,9.214H1.983V28.36h46.8Z" fill="#c5a07a"/>
      </g>
    </g>
  </g>
</svg>
