<svg xmlns="http://www.w3.org/2000/svg" xmlns:xlink="http://www.w3.org/1999/xlink" width="102" height="102" viewBox="0 0 102 102">
  <defs>
    <filter id="Elipse_13737" x="0" y="0" width="102" height="102" filterUnits="userSpaceOnUse">
      <feOffset dy="3" input="SourceAlpha"/>
      <feGaussianBlur stdDeviation="3" result="blur"/>
      <feFlood flood-opacity="0.161"/>
      <feComposite operator="in" in2="blur"/>
      <feComposite in="SourceGraphic"/>
    </filter>
  </defs>
  <g id="Grupo_1190492" data-name="Grupo 1190492" transform="translate(-508.848 -2701.577)">
    <g id="Grupo_1189088" data-name="Grupo 1189088" transform="translate(517.848 2707.577)">
      <g transform="matrix(1, 0, 0, 1, -9, -6)" filter="url(#Elipse_13737)">
        <circle id="Elipse_13737-2" data-name="Elipse 13737" cx="42" cy="42" r="42" transform="translate(9 6)" fill="#fff"/>
      </g>
    </g>
    <g id="servicio-de-lavanderia" transform="translate(538.474 2713.967)">
      <path id="Trazado_1091085" data-name="Trazado 1091085" d="M82.59,49.276a.9.9,0,0,0,.9-.9V28.42A19.24,19.24,0,0,1,101.806,9.226v2.366A16.87,16.87,0,0,0,85.862,28.416v15.3a3.732,3.732,0,0,0,3.728,3.728h3.358v5.948a3.732,3.732,0,0,0,3.728,3.728h12.069a3.732,3.732,0,0,0,3.728-3.728V47.445h3.358a3.732,3.732,0,0,0,3.728-3.728v-15.3a16.87,16.87,0,0,0-15.944-16.824V9.225a19.218,19.218,0,0,1,18.312,19.243.9.9,0,0,0,1.809,0,21.036,21.036,0,0,0-17.6-20.8A4.6,4.6,0,1,0,98.107,4.6a.9.9,0,0,0,1.809,0,2.8,2.8,0,1,1,2.8,2.79A21.05,21.05,0,0,0,81.685,28.42v19.95a.9.9,0,0,0,.9.9Zm15.9-31.337h8.436l-4.218,7.305Zm3.313-1.809H97.449l-.841-1.457a14.927,14.927,0,0,1,5.2-1.268ZM95,15.508l5.236,9.069-9.37-5.419A15.153,15.153,0,0,1,95,15.508Zm-.243,37.884V32.1a.9.9,0,0,0-1.809,0v13.54H89.59a1.921,1.921,0,0,1-1.918-1.918v-15.3a14.948,14.948,0,0,1,2.164-7.765l11.971,6.924V55.311h-5.13A1.92,1.92,0,0,1,94.758,53.392Zm22.992-9.675a1.921,1.921,0,0,1-1.918,1.918h-3.358V32.1a.9.9,0,1,0-1.809,0v21.3a1.921,1.921,0,0,1-1.918,1.919h-5.13V27.575l11.971-6.924a14.948,14.948,0,0,1,2.164,7.765Zm-3.2-24.559-9.37,5.419,5.236-9.069a15.157,15.157,0,0,1,4.134,3.65Zm-5.74-4.486-.841,1.457h-4.358V13.4A14.932,14.932,0,0,1,108.815,14.672Z" transform="translate(-81.685 0)" fill="#c5a07a"/>
      <path id="Trazado_1091086" data-name="Trazado 1091086" d="M122.832,263.891a.9.9,0,0,0-.9.9v21.573a5.647,5.647,0,0,1-5.64,5.64H89.134a5.647,5.647,0,0,1-5.64-5.64v-1.716a.9.9,0,1,0-1.809,0v1.716a7.458,7.458,0,0,0,7.45,7.45h27.153a7.458,7.458,0,0,0,7.45-7.45V264.8A.9.9,0,0,0,122.832,263.891Z" transform="translate(-81.684 -232.06)" fill="#c5a07a"/>
    </g>
  </g>
</svg>
