<svg xmlns="http://www.w3.org/2000/svg" width="84" height="84" viewBox="0 0 84 84">
  <g id="hotel" transform="translate(-3 -3)">
    <path id="Trazado_1091477" data-name="Trazado 1091477" d="M17,64.25H5a2,2,0,0,1-2-2V24.87A3.022,3.022,0,0,1,4.621,22.2l8.484-4.243a2,2,0,1,1,1.789,3.578L7,25.487V60.25H17a2,2,0,0,1,0,4Z" transform="translate(0 14.75)" fill="#fec190"/>
    <path id="Trazado_1091478" data-name="Trazado 1091478" d="M51,64.25H39a2,2,0,0,1,0-4H49V25.486l-7.895-3.946a2,2,0,1,1,1.789-3.578l8.439,4.22A3.042,3.042,0,0,1,53,24.87V62.25a2,2,0,0,1-2,2Z" transform="translate(34 14.75)" fill="#fec190"/>
    <path id="Trazado_1091479" data-name="Trazado 1091479" d="M70.5,70h-60a3,3,0,0,1-3-3V15a3,3,0,0,1,3-3h60a3,3,0,0,1,3,3V67a3,3,0,0,1-3,3Zm-59-4h58V16h-58Z" transform="translate(4.5 9)" fill="#fec190"/>
    <path id="Trazado_1091480" data-name="Trazado 1091480" d="M85,51H7a4,4,0,0,1-4-4V41a2,2,0,0,1,2-2H85a2,2,0,0,1,2,2v8A2,2,0,0,1,85,51ZM7,43v4H83V43Z" transform="translate(0 36)" fill="#fec190"/>
    <path id="Trazado_1091481" data-name="Trazado 1091481" d="M50.5,34h-34a2,2,0,1,1,0-4h34a2,2,0,1,1,0,4Z" transform="translate(11.5 27)" fill="#fec190"/>
    <path id="Trazado_1091482" data-name="Trazado 1091482" d="M46,52H18a2,2,0,0,1-2-2V32a2,2,0,0,1,2-2H46a2,2,0,0,1,2,2V50a2,2,0,0,1-2,2ZM20,48H44V34H20Z" transform="translate(13 27)" fill="#fec190"/>
    <path id="Trazado_1091483" data-name="Trazado 1091483" d="M20.75,25.25a2,2,0,0,1-2-2v-5a2,2,0,0,1,2-2h5a2,2,0,1,1,0,4h-3v3a2,2,0,0,1-2,2Z" transform="translate(15.75 13.25)" fill="#fec190"/>
    <path id="Trazado_1091484" data-name="Trazado 1091484" d="M27.25,25.25a2,2,0,0,1-2-2v-5a2,2,0,0,1,2-2h5a2,2,0,1,1,0,4h-3v3a2,2,0,0,1-2,2Z" transform="translate(22.25 13.25)" fill="#fec190"/>
    <path id="Trazado_1091485" data-name="Trazado 1091485" d="M14.25,25.25a2,2,0,0,1-2-2v-5a2,2,0,0,1,2-2h5a2,2,0,1,1,0,4h-3v3a2,2,0,0,1-2,2Z" transform="translate(9.25 13.25)" fill="#fec190"/>
    <path id="Trazado_1091486" data-name="Trazado 1091486" d="M20.75,32.25a2,2,0,0,1-2-2v-5a2,2,0,0,1,2-2h5a2,2,0,1,1,0,4h-3v3a2,2,0,0,1-2,2Z" transform="translate(15.75 20.25)" fill="#fec190"/>
    <path id="Trazado_1091487" data-name="Trazado 1091487" d="M27.25,32.25a2,2,0,0,1-2-2v-5a2,2,0,0,1,2-2h5a2,2,0,1,1,0,4h-3v3a2,2,0,0,1-2,2Z" transform="translate(22.25 20.25)" fill="#fec190"/>
    <path id="Trazado_1091488" data-name="Trazado 1091488" d="M33.25,25.25a2,2,0,0,1-2-2v-5a2,2,0,0,1,2-2h5a2,2,0,0,1,0,4h-3v3a2,2,0,0,1-2,2Z" transform="translate(28.25 13.25)" fill="#fec190"/>
    <path id="Trazado_1091489" data-name="Trazado 1091489" d="M33.25,32.25a2,2,0,0,1-2-2v-5a2,2,0,0,1,2-2h5a2,2,0,0,1,0,4h-3v3a2,2,0,0,1-2,2Z" transform="translate(28.25 20.25)" fill="#fec190"/>
    <path id="Trazado_1091490" data-name="Trazado 1091490" d="M14.25,32.25a2,2,0,0,1-2-2v-5a2,2,0,0,1,2-2h5a2,2,0,1,1,0,4h-3v3a2,2,0,0,1-2,2Z" transform="translate(9.25 20.25)" fill="#fec190"/>
    <path id="Trazado_1091491" data-name="Trazado 1091491" d="M25,48a2,2,0,0,1-2-2V36a2,2,0,1,1,4,0V46a2,2,0,0,1-2,2Z" transform="translate(20 31)" fill="#fec190"/>
    <path id="Trazado_1091492" data-name="Trazado 1091492" d="M69,17H11a3,3,0,0,1-3-3V6a3,3,0,0,1,3-3H69a3,3,0,0,1,3,3v8A3,3,0,0,1,69,17ZM12,13H68V7H12Z" transform="translate(5)" fill="#fec190"/>
    <path id="Trazado_1091493" data-name="Trazado 1091493" d="M61,20H13a2,2,0,0,1-2-2V10a2,2,0,0,1,2-2H61a2,2,0,0,1,2,2v8a2,2,0,0,1-2,2ZM15,16H59V12H15Z" transform="translate(8 5)" fill="#fec190"/>
  </g>
</svg>
