<svg xmlns="http://www.w3.org/2000/svg" width="124" height="124" viewBox="0 0 124 124">
  <g id="Grupo_1190481" data-name="Grupo 1190481" transform="translate(-789 -1268.365)">
    <circle id="Elipse_13636" data-name="Elipse 13636" cx="62" cy="62" r="62" transform="translate(789 1268.365)" fill="#fff"/>
    <g id="ouline" transform="translate(787.348 1249.947)">
      <path id="Trazado_1091036" data-name="Trazado 1091036" d="M148.389,41.154a1.454,1.454,0,0,0-1.312-.013L120.806,54.087a1.458,1.458,0,0,0-.806,1.3v48.116a1.458,1.458,0,0,0,1.458,1.458h51.033a1.458,1.458,0,0,0,1.458-1.458V55.391a1.458,1.458,0,0,0-.776-1.289S152.377,43.218,148.389,41.154ZM147.7,54.809l2.8,3.5h-5.6Zm2.525,6.414a2.915,2.915,0,0,1-5.05,0Zm20.8,40.826H122.916V56.292l23.329-11.665v7.336l-5.513,6.89a1.458,1.458,0,0,0,1.139,2.369h.185a5.832,5.832,0,0,0,11.3,0h.185a1.458,1.458,0,0,0,1.139-2.369l-5.513-6.89V44.69l21.871,11.579Z" transform="translate(-78.503)" fill="#20849e"/>
      <path id="Trazado_1091037" data-name="Trazado 1091037" d="M189.871,221.828v1.458h-6.083a4.373,4.373,0,0,0-4.123-5.832h-2.916a4.347,4.347,0,0,0-1.907.437,3.644,3.644,0,0,0-6.842,1.75v18.226a1.458,1.458,0,0,0,1.458,1.458h4.374a1.458,1.458,0,0,0,1.458-1.458v-2.916h21.871v2.916a1.458,1.458,0,0,0,1.458,1.458h4.374a1.458,1.458,0,0,0,1.458-1.458V224.016a3.649,3.649,0,0,0-3.645-3.645h-9.477A1.458,1.458,0,0,0,189.871,221.828Zm-14.581,0a1.46,1.46,0,0,1,1.458-1.458h2.916a1.458,1.458,0,0,1,0,2.916H175.29Zm14.581,10.207H173.832a1.458,1.458,0,0,0-1.458,1.458v2.916h-1.458V219.641a.729.729,0,1,1,1.458,0v9.477a1.458,1.458,0,0,0,1.458,1.458h16.039Zm0-4.374H175.29V226.2h14.581Zm11.665,8.748h-1.458v-1.458h1.458Zm-8.748-13.123h8.019a.729.729,0,0,1,.729.729v8.019h-8.748Z" transform="translate(-117.755 -143.108)" fill="#20849e"/>
      <path id="Trazado_1091038" data-name="Trazado 1091038" d="M26.489,61.405l.427-.427v69.384a1.458,1.458,0,0,0,1.458,1.458h72.3l-.427.427a1.458,1.458,0,0,0,2.062,2.062l2.916-2.916a1.458,1.458,0,0,0,0-2.062l-2.916-2.916a1.458,1.458,0,0,0-2.062,2.062l.427.427h-9.6v-4.374a1.458,1.458,0,1,0-2.916,0V128.9H82.323v-2.916a1.458,1.458,0,0,0-2.916,0V128.9H73.574v-4.374a1.458,1.458,0,0,0-2.916,0V128.9H64.826v-4.374a1.458,1.458,0,1,0-2.916,0V128.9H56.077v-2.916a1.458,1.458,0,0,0-2.916,0V128.9H47.329v-4.374a1.458,1.458,0,1,0-2.916,0V128.9H38.581v-2.916a1.458,1.458,0,0,0-2.916,0V128.9H29.832v-5.832h2.916a1.458,1.458,0,1,0,0-2.916H29.832v-5.832h4.374a1.458,1.458,0,0,0,0-2.916H29.832v-5.832h2.916a1.458,1.458,0,0,0,0-2.916H29.832V96.826h4.374a1.458,1.458,0,1,0,0-2.916H29.832V88.077h4.374a1.458,1.458,0,0,0,0-2.916H29.832V79.329h2.916a1.458,1.458,0,0,0,0-2.916H29.832V70.581h4.374a1.458,1.458,0,1,0,0-2.916H29.832V60.978l.427.427a1.458,1.458,0,1,0,2.062-2.062l-2.916-2.916a1.458,1.458,0,0,0-2.062,0l-2.916,2.916a1.458,1.458,0,1,0,2.062,2.062Z" transform="translate(0 -12.273)" fill="#20849e"/>
    </g>
  </g>
</svg>
