<svg xmlns="http://www.w3.org/2000/svg" xmlns:xlink="http://www.w3.org/1999/xlink" width="102" height="102" viewBox="0 0 102 102">
  <defs>
    <filter id="Elipse_13737" x="0" y="0" width="102" height="102" filterUnits="userSpaceOnUse">
      <feOffset dy="3" input="SourceAlpha"/>
      <feGaussianBlur stdDeviation="3" result="blur"/>
      <feFlood flood-opacity="0.161"/>
      <feComposite operator="in" in2="blur"/>
      <feComposite in="SourceGraphic"/>
    </filter>
  </defs>
  <g id="Grupo_1190485" data-name="Grupo 1190485" transform="translate(-488 -2509.913)">
    <g id="Grupo_1189084" data-name="Grupo 1189084" transform="translate(497 2515.913)">
      <g transform="matrix(1, 0, 0, 1, -9, -6)" filter="url(#Elipse_13737)">
        <circle id="Elipse_13737-2" data-name="Elipse 13737" cx="42" cy="42" r="42" transform="translate(9 6)" fill="#fff"/>
      </g>
    </g>
    <g id="XMLID_70_" transform="translate(511.577 2535.166)">
      <g id="XMLID_650_" transform="translate(0 0)">
        <path id="XMLID_690_" d="M50.77,25.286A3.772,3.772,0,0,0,47,21.518H45.2a7.215,7.215,0,0,0-4.613-5.054,5.188,5.188,0,0,1-3.489-4.9V11.1a5,5,0,0,0,3.375,1.309.992.992,0,1,0,0-1.983,3.037,3.037,0,0,1-3.029-2.887l1.227-1.075H43.57a1.847,1.847,0,0,0,1.845-1.845V1.845A1.847,1.847,0,0,0,43.57,0H30.391a7.408,7.408,0,0,0-7.4,7.4V8.61a.992.992,0,0,0,1.541.825A6.241,6.241,0,0,1,28,8.384h.116v2.994a37.171,37.171,0,0,0-2.407,10.139H22.609V15.671a4.248,4.248,0,0,0-3.346-4.137l-.012,0a2.256,2.256,0,0,1-1.618-1.367.991.991,0,0,0,.647-.929V4.958a.991.991,0,0,0-.57-.9V1.884A1.886,1.886,0,0,0,15.825,0H11.543A1.886,1.886,0,0,0,9.659,1.884V4.061a.991.991,0,0,0-.57.9V9.236a.991.991,0,0,0,.641.927,2.257,2.257,0,0,1-1.618,1.37A4.25,4.25,0,0,0,4.76,15.67v5.848H3.768A3.768,3.768,0,0,0,2.311,28.76L4.861,45.2a6.577,6.577,0,0,0,6.5,5.569h9.563a.992.992,0,1,0,0-1.983H11.36A4.57,4.57,0,0,1,6.821,44.9L4.364,29.054h8.316v6.614A2.976,2.976,0,0,0,16.63,38.48v2.472a2.976,2.976,0,0,0,4.068,2.77,2.978,2.978,0,0,0,5.762,0,2.975,2.975,0,0,0,4.068-2.769v-5.8a3.369,3.369,0,0,0,4.76-3.071V29.054H46.407L43.949,44.9a4.57,4.57,0,0,1-4.539,3.89H29.847a.992.992,0,1,0,0,1.983H39.41a6.577,6.577,0,0,0,6.5-5.569l2.55-16.44a3.774,3.774,0,0,0,2.311-3.475Zm-7.338-20.8H41.481v-2.5h1.951ZM24.992,6.97a5.423,5.423,0,0,1,5.4-4.987H39.5v2.5H38.3a.992.992,0,0,0-.653.246L35.738,6.4H28A8.223,8.223,0,0,0,24.992,6.97ZM35.119,8.384v2.188H30.1V8.384Zm-5.327,4.171h5.4a7.174,7.174,0,0,0,4.755,5.782,5.219,5.219,0,0,1,3.194,3.18H27.707A35.183,35.183,0,0,1,29.792,12.555ZM11.072,5.95H16.3V8.244H11.072Zm.57-3.966h4.083V3.966H11.643ZM6.743,15.67a2.258,2.258,0,0,1,1.781-2.2,4.255,4.255,0,0,0,3.256-3.245h3.8a4.25,4.25,0,0,0,3.249,3.243l.012,0a2.258,2.258,0,0,1,1.781,2.2v5.847H6.743Zm-2.975,11.4a1.785,1.785,0,1,1,0-3.57h8.911v3.57ZM33.3,32.082a1.388,1.388,0,0,1-2.776,0V28.323a.992.992,0,0,0-.992-.992h0a.992.992,0,0,0-.992.992v12.63a.994.994,0,0,1-1.988,0V32.289a.992.992,0,0,0-1.983,0V42.97a.994.994,0,1,1-1.988,0V32.289a.992.992,0,0,0-.992-.992h0a.992.992,0,0,0-.992.992v8.665a.994.994,0,0,1-1.988,0l.02-8.7a1,1,0,0,0-2,.033v3.579a.994.994,0,0,1-1.968-.2V23.5H32.289l1.016,3.425v5.156ZM47,27.071H35.288v-.289a1,1,0,0,0-.041-.282l-.89-3H47a1.785,1.785,0,1,1,0,3.57Z" transform="translate(0 0)" fill="#c5a07a"/>
        <path id="XMLID_700_" d="M246.992,492a.992.992,0,1,0,.7.29A1,1,0,0,0,246.992,492Z" transform="translate(-221.607 -443.214)" fill="#c5a07a"/>
      </g>
    </g>
  </g>
</svg>
