<svg xmlns="http://www.w3.org/2000/svg" width="81.348" height="84.353" viewBox="0 0 81.348 84.353">
  <g id="cuidado-de-la-salud" transform="translate(-1.14)">
    <g id="Grupo_1190394" data-name="Grupo 1190394" transform="translate(1.14 0)">
      <g id="Grupo_1190390" data-name="Grupo 1190390" transform="translate(0 12.745)">
        <path id="Trazado_1091457" data-name="Trazado 1091457" d="M62.3,81.278H4.83a3.7,3.7,0,0,1-3.69-3.7V13.36A3.7,3.7,0,0,1,4.83,9.67h9.661a1.278,1.278,0,0,1,0,2.557H4.83A1.133,1.133,0,0,0,3.7,13.36V77.574A1.145,1.145,0,0,0,4.83,78.721H62.309a1.147,1.147,0,0,0,1.147-1.147V47.84a1.278,1.278,0,1,1,2.557,0V77.574a3.71,3.71,0,0,1-3.717,3.7Z" transform="translate(-1.14 -9.67)" fill="#7d8c48"/>
      </g>
      <g id="Grupo_1190391" data-name="Grupo 1190391" transform="translate(50.229 12.745)">
        <path id="Trazado_1091458" data-name="Trazado 1091458" d="M52.615,42.344a1.271,1.271,0,0,1-1.278-1.278V13.36a1.136,1.136,0,0,0-1.147-1.133H40.528a1.278,1.278,0,0,1,0-2.557H50.19a3.7,3.7,0,0,1,3.7,3.69v27.7a1.28,1.28,0,0,1-1.278,1.278Z" transform="translate(-39.25 -9.67)" fill="#7d8c48"/>
      </g>
      <g id="Grupo_1190392" data-name="Grupo 1190392" transform="translate(11.981)">
        <path id="Trazado_1091459" data-name="Trazado 1091459" d="M49.863,19.612H11.508a1.271,1.271,0,0,1-1.278-1.278V15.2a8.415,8.415,0,0,1,8.409-8.409h4.086a8.054,8.054,0,0,1,15.908,0h4.086A8.415,8.415,0,0,1,51.128,15.2v3.137A1.26,1.26,0,0,1,49.863,19.612ZM12.774,17.055h35.8V15.2a5.856,5.856,0,0,0-5.852-5.852H37.46a1.271,1.271,0,0,1-1.278-1.278,5.509,5.509,0,0,0-11.019,0,1.271,1.271,0,0,1-1.278,1.278H18.626A5.856,5.856,0,0,0,12.774,15.2Z" transform="translate(-10.23 0)" fill="#7d8c48"/>
      </g>
      <g id="Grupo_1190393" data-name="Grupo 1190393" transform="translate(28.232 4.31)">
        <path id="Trazado_1091460" data-name="Trazado 1091460" d="M26.751,11.653a4.191,4.191,0,1,1,4.191-4.191A4.2,4.2,0,0,1,26.751,11.653Zm0-5.826a1.634,1.634,0,1,0,1.634,1.634A1.643,1.643,0,0,0,26.751,5.827Z" transform="translate(-22.56 -3.27)" fill="#7d8c48"/>
      </g>
    </g>
    <g id="Grupo_1190416" data-name="Grupo 1190416" transform="translate(9.813 23.289)">
      <g id="Grupo_1190401" data-name="Grupo 1190401" transform="translate(0)">
        <g id="Grupo_1190397" data-name="Grupo 1190397">
          <g id="Grupo_1190395" data-name="Grupo 1190395">
            <path id="Trazado_1091461" data-name="Trazado 1091461" d="M21.52,34.04H10.29a2.573,2.573,0,0,1-2.57-2.57V20.24a2.573,2.573,0,0,1,2.57-2.57H21.52a2.573,2.573,0,0,1,2.57,2.57V31.47A2.565,2.565,0,0,1,21.52,34.04ZM10.29,20.214,10.277,31.47l11.256.013a.013.013,0,0,0,.013-.013V20.24Z" transform="translate(-7.72 -17.67)" fill="#7d8c48"/>
          </g>
          <g id="Grupo_1190396" data-name="Grupo 1190396" transform="translate(3.499 4.185)">
            <path id="Trazado_1091462" data-name="Trazado 1091462" d="M13.743,28.114a1.275,1.275,0,0,1-.909-.369l-2.082-2.082a1.277,1.277,0,0,1,1.806-1.806l1.186,1.186,3.822-3.822a1.277,1.277,0,0,1,1.806,1.806l-4.732,4.732A1.35,1.35,0,0,1,13.743,28.114Z" transform="translate(-10.375 -20.845)" fill="#7d8c48"/>
          </g>
        </g>
        <g id="Grupo_1190400" data-name="Grupo 1190400" transform="translate(19.955 3.203)">
          <g id="Grupo_1190398" data-name="Grupo 1190398" transform="translate(0)">
            <path id="Trazado_1091463" data-name="Trazado 1091463" d="M49.154,22.657H24.138a1.278,1.278,0,0,1,0-2.557H49.154a1.278,1.278,0,0,1,0,2.557Z" transform="translate(-22.86 -20.1)" fill="#7d8c48"/>
          </g>
          <g id="Grupo_1190399" data-name="Grupo 1190399" transform="translate(0 7.394)">
            <path id="Trazado_1091464" data-name="Trazado 1091464" d="M49.154,28.267H24.138a1.278,1.278,0,0,1,0-2.557H49.154a1.278,1.278,0,0,1,0,2.557Z" transform="translate(-22.86 -25.71)" fill="#7d8c48"/>
          </g>
        </g>
      </g>
      <g id="Grupo_1190408" data-name="Grupo 1190408" transform="translate(0 19.217)">
        <g id="Grupo_1190404" data-name="Grupo 1190404">
          <g id="Grupo_1190402" data-name="Grupo 1190402">
            <path id="Trazado_1091465" data-name="Trazado 1091465" d="M21.52,48.62H10.29a2.573,2.573,0,0,1-2.57-2.57V34.82a2.573,2.573,0,0,1,2.57-2.57H21.52a2.573,2.573,0,0,1,2.57,2.57V46.05A2.557,2.557,0,0,1,21.52,48.62ZM10.29,34.794,10.277,46.05l11.256.013a.013.013,0,0,0,.013-.013V34.82Z" transform="translate(-7.72 -32.25)" fill="#7d8c48"/>
          </g>
          <g id="Grupo_1190403" data-name="Grupo 1190403" transform="translate(3.499 4.185)">
            <path id="Trazado_1091466" data-name="Trazado 1091466" d="M13.743,42.694a1.275,1.275,0,0,1-.909-.369l-2.082-2.082a1.277,1.277,0,0,1,1.806-1.806l1.186,1.186L17.565,35.8a1.277,1.277,0,1,1,1.806,1.806l-4.732,4.732A1.288,1.288,0,0,1,13.743,42.694Z" transform="translate(-10.375 -35.425)" fill="#7d8c48"/>
          </g>
        </g>
        <g id="Grupo_1190407" data-name="Grupo 1190407" transform="translate(19.955 3.216)">
          <g id="Grupo_1190405" data-name="Grupo 1190405" transform="translate(0)">
            <path id="Trazado_1091467" data-name="Trazado 1091467" d="M49.154,37.247H24.138a1.278,1.278,0,0,1,0-2.557H49.154a1.278,1.278,0,0,1,0,2.557Z" transform="translate(-22.86 -34.69)" fill="#7d8c48"/>
          </g>
          <g id="Grupo_1190406" data-name="Grupo 1190406" transform="translate(0 7.381)">
            <path id="Trazado_1091468" data-name="Trazado 1091468" d="M42.617,42.847H24.138a1.278,1.278,0,0,1,0-2.557H42.6a1.279,1.279,0,0,1,.013,2.557Z" transform="translate(-22.86 -40.29)" fill="#7d8c48"/>
          </g>
        </g>
      </g>
      <g id="Grupo_1190415" data-name="Grupo 1190415" transform="translate(0 38.446)">
        <g id="Grupo_1190411" data-name="Grupo 1190411">
          <g id="Grupo_1190409" data-name="Grupo 1190409">
            <path id="Trazado_1091469" data-name="Trazado 1091469" d="M21.52,63.21H10.29a2.573,2.573,0,0,1-2.57-2.57V49.41a2.573,2.573,0,0,1,2.57-2.57H21.52a2.573,2.573,0,0,1,2.57,2.57V60.64A2.565,2.565,0,0,1,21.52,63.21ZM10.29,49.384l-.013,11.243,11.256.013a.013.013,0,0,0,.013-.013V49.4Z" transform="translate(-7.72 -46.84)" fill="#7d8c48"/>
          </g>
          <g id="Grupo_1190410" data-name="Grupo 1190410" transform="translate(3.499 4.185)">
            <path id="Trazado_1091470" data-name="Trazado 1091470" d="M13.743,57.284a1.275,1.275,0,0,1-.909-.369l-2.082-2.082a1.277,1.277,0,0,1,1.806-1.806l1.186,1.186,3.822-3.822A1.277,1.277,0,0,1,19.37,52.2l-4.732,4.732A1.35,1.35,0,0,1,13.743,57.284Z" transform="translate(-10.375 -50.015)" fill="#7d8c48"/>
          </g>
        </g>
        <g id="Grupo_1190414" data-name="Grupo 1190414" transform="translate(19.955 3.203)">
          <g id="Grupo_1190412" data-name="Grupo 1190412" transform="translate(0)">
            <path id="Trazado_1091471" data-name="Trazado 1091471" d="M37.885,51.827H24.138a1.278,1.278,0,0,1,0-2.557H37.885a1.278,1.278,0,1,1,0,2.557Z" transform="translate(-22.86 -49.27)" fill="#7d8c48"/>
          </g>
          <g id="Grupo_1190413" data-name="Grupo 1190413" transform="translate(0 7.381)">
            <path id="Trazado_1091472" data-name="Trazado 1091472" d="M49.154,57.427H24.138a1.278,1.278,0,0,1,0-2.557H49.154a1.278,1.278,0,0,1,0,2.557Z" transform="translate(-22.86 -54.87)" fill="#7d8c48"/>
          </g>
        </g>
      </g>
    </g>
    <g id="Grupo_1190422" data-name="Grupo 1190422" transform="translate(46.962 29.985)">
      <g id="Grupo_1190420" data-name="Grupo 1190420">
        <g id="Grupo_1190417" data-name="Grupo 1190417" transform="translate(2.311 16.508)">
          <path id="Trazado_1091473" data-name="Trazado 1091473" d="M41.719,52.02a2.1,2.1,0,0,1-1.463-.593l-1.99-2.017a2.053,2.053,0,0,1,.026-2.939L49.074,35.651a1.277,1.277,0,1,1,1.806,1.806L40.415,47.948l1.3,1.318L52.171,38.788a1.277,1.277,0,0,1,1.806,1.806L43.182,51.414a2.112,2.112,0,0,1-1.463.606Zm-1.661-4.429Z" transform="translate(-37.66 -35.275)" fill="#7d8c48"/>
        </g>
        <g id="Grupo_1190418" data-name="Grupo 1190418" transform="translate(13.106)">
          <path id="Trazado_1091474" data-name="Trazado 1091474" d="M50.753,45.209a1.275,1.275,0,0,1-.909-.369l-3.625-3.625a1.286,1.286,0,0,1-.369-.909,1.309,1.309,0,0,1,.369-.909L62.246,23.343a2.292,2.292,0,0,1,1.437-.593,2.024,2.024,0,0,1,1.437.593l2.557,2.544a2.052,2.052,0,0,1,0,2.886L51.662,44.827a1.289,1.289,0,0,1-.909.382Zm-1.819-4.9,1.819,1.819L65.5,27.337l-1.819-1.819Z" transform="translate(-45.85 -22.75)" fill="#7d8c48"/>
        </g>
        <g id="Grupo_1190419" data-name="Grupo 1190419" transform="translate(0 28.464)">
          <path id="Trazado_1091475" data-name="Trazado 1091475" d="M37.19,51.416a1.333,1.333,0,0,1-.909-.369,1.278,1.278,0,0,1-.211-1.529L38.6,45a1.278,1.278,0,1,1,2.227,1.252l-.316.567.567-.316a1.278,1.278,0,1,1,1.252,2.227l-4.521,2.517A1.157,1.157,0,0,1,37.19,51.416Z" transform="translate(-35.906 -44.346)" fill="#7d8c48"/>
        </g>
      </g>
      <g id="Grupo_1190421" data-name="Grupo 1190421" transform="translate(23.709 3.17)">
        <path id="Trazado_1091476" data-name="Trazado 1091476" d="M55.18,43.6a1.272,1.272,0,0,1-.909-2.175l8.277-8.277-5.812-5.812a1.277,1.277,0,1,1,1.806-1.806l6.709,6.709a1.273,1.273,0,0,1,0,1.806l-9.173,9.187A1.278,1.278,0,0,1,55.18,43.6Z" transform="translate(-53.895 -25.155)" fill="#7d8c48"/>
      </g>
    </g>
  </g>
</svg>
