<svg xmlns="http://www.w3.org/2000/svg" width="68.846" height="71.322" viewBox="0 0 68.846 71.322">
  <g id="llave-del-hotel" transform="translate(-12.041 -4.8)">
    <g id="Grupo_1189120" data-name="Grupo 1189120" transform="translate(51.77 19.116)">
      <path id="Trazado_1085573" data-name="Trazado 1085573" d="M272.758,122.616a14.558,14.558,0,1,1,14.558-14.558A14.572,14.572,0,0,1,272.758,122.616Zm0-27.486A12.944,12.944,0,1,0,285.7,108.074,12.963,12.963,0,0,0,272.758,95.13Z" transform="translate(-258.2 -93.5)" fill="#819aaa"/>
    </g>
    <g id="Grupo_1189121" data-name="Grupo 1189121" transform="translate(60.502 45.692)">
      <path id="Trazado_1085574" data-name="Trazado 1085574" d="M317.223,288.588a.833.833,0,0,1-.533-.194l-4.1-3.5a.824.824,0,0,1-.291-.613v-5.488a.8.8,0,0,1,.807-.807h1.549a.375.375,0,0,0,.371-.371v-2.1a.375.375,0,0,0-.371-.371h-1.549a.8.8,0,0,1-.807-.807v-3.551a.8.8,0,0,1,.807-.807h1.549a.375.375,0,0,0,.371-.371v-2.1a.375.375,0,0,0-.371-.371h-1.549a.8.8,0,0,1-.807-.807v-7.376a.792.792,0,0,1,.355-.662.812.812,0,0,1,.742-.081,12.983,12.983,0,0,0,8.054.452.769.769,0,0,1,.694.145.843.843,0,0,1,.323.646v24.855a.8.8,0,0,1-.307.629l-4.455,3.5A.893.893,0,0,1,317.223,288.588Zm-3.293-4.664,3.309,2.824,3.631-2.841V260.44a14.236,14.236,0,0,1-2.744.258,14.668,14.668,0,0,1-4.2-.613v5.439h.742a1.984,1.984,0,0,1,1.985,1.985v2.1a1.984,1.984,0,0,1-1.985,1.985h-.742v1.937h.742a1.984,1.984,0,0,1,1.985,1.985v2.1a1.984,1.984,0,0,1-1.985,1.985h-.742Z" transform="translate(-312.3 -258.157)" fill="#819aaa"/>
    </g>
    <g id="Grupo_1189122" data-name="Grupo 1189122" transform="translate(61.035 22.828)">
      <path id="Trazado_1085575" data-name="Trazado 1085575" d="M321.136,127.572a5.536,5.536,0,1,1,5.536-5.536A5.545,5.545,0,0,1,321.136,127.572Zm0-9.474a3.922,3.922,0,1,0,3.922,3.922A3.926,3.926,0,0,0,321.136,118.1Z" transform="translate(-315.6 -116.5)" fill="#819aaa"/>
    </g>
    <g id="Grupo_1189123" data-name="Grupo 1189123" transform="translate(66.49 46.586)">
      <path id="Trazado_1085576" data-name="Trazado 1085576" d="M350.207,283.6a.8.8,0,0,1-.807-.807V264.507a.807.807,0,0,1,1.614,0v18.286A.8.8,0,0,1,350.207,283.6Z" transform="translate(-349.4 -263.7)" fill="#819aaa"/>
    </g>
    <g id="Grupo_1189124" data-name="Grupo 1189124" transform="translate(59.582 36.015)">
      <path id="Trazado_1085577" data-name="Trazado 1085577" d="M318.689,199.814H307.407a.807.807,0,0,1,0-1.614h11.282a.807.807,0,1,1,0,1.614Z" transform="translate(-306.6 -198.2)" fill="#819aaa"/>
    </g>
    <g id="Grupo_1189125" data-name="Grupo 1189125" transform="translate(59.211 40.017)">
      <path id="Trazado_1085578" data-name="Trazado 1085578" d="M316.76,224.614H305.107a.807.807,0,1,1,0-1.614H316.76a.807.807,0,1,1,0,1.614Z" transform="translate(-304.3 -223)" fill="#819aaa"/>
    </g>
    <g id="Grupo_1189126" data-name="Grupo 1189126" transform="translate(45.653 4.8)">
      <path id="Trazado_1085579" data-name="Trazado 1085579" d="M233.664,31.528A13.38,13.38,0,0,1,220.3,18.164a12.707,12.707,0,0,1,.065-1.356.811.811,0,0,1,1.614.161,9.7,9.7,0,0,0-.065,1.194,11.755,11.755,0,0,0,21.74,6.2.808.808,0,1,1,1.372.855A13.319,13.319,0,0,1,233.664,31.528Zm12.282-9.861a.662.662,0,0,1-.178-.016.8.8,0,0,1-.613-.952,12.064,12.064,0,0,0,.274-2.534A11.756,11.756,0,0,0,223.609,12.1a.811.811,0,0,1-1.388-.839,13.38,13.38,0,0,1,24.516,9.781A.825.825,0,0,1,245.946,21.666Z" transform="translate(-220.3 -4.8)" fill="#819aaa"/>
    </g>
    <g id="Grupo_1189127" data-name="Grupo 1189127" transform="translate(12.041 9.874)">
      <path id="Trazado_1085580" data-name="Trazado 1085580" d="M38.342,91.024a.728.728,0,0,1-.4-.113l-25.5-14.72a.785.785,0,0,1-.371-.484.817.817,0,0,1,.081-.613L31.321,41.862a.775.775,0,0,1,.5-.371l20.013-5.229a.814.814,0,0,1,.985.565l3.857,14.042a.8.8,0,0,1-1.549.42L51.48,38.021,32.548,42.96,13.939,75.191,38.051,89.1,52.577,63.942a.8.8,0,0,1,1.388.807L39.036,90.6a.847.847,0,0,1-.484.371.336.336,0,0,1-.21.048Z" transform="translate(-12.041 -36.235)" fill="#819aaa"/>
    </g>
    <g id="Grupo_1189128" data-name="Grupo 1189128" transform="translate(27.11 33.386)">
      <path id="Trazado_1085581" data-name="Trazado 1085581" d="M122.05,192.658a.728.728,0,0,1-.4-.113l-15.833-9.135a.8.8,0,0,1,.807-1.388l15.833,9.135a.806.806,0,0,1-.4,1.5Z" transform="translate(-105.411 -181.911)" fill="#819aaa"/>
    </g>
    <g id="Grupo_1189129" data-name="Grupo 1189129" transform="translate(23.608 39.438)">
      <path id="Trazado_1085582" data-name="Trazado 1085582" d="M100.35,230.158a.729.729,0,0,1-.4-.113L84.113,220.91a.8.8,0,0,1,.807-1.388l15.833,9.135a.8.8,0,0,1,.291,1.1A.781.781,0,0,1,100.35,230.158Z" transform="translate(-83.711 -219.411)" fill="#819aaa"/>
    </g>
    <g id="Grupo_1189130" data-name="Grupo 1189130" transform="translate(20.122 45.49)">
      <path id="Trazado_1085583" data-name="Trazado 1085583" d="M78.75,267.658a.728.728,0,0,1-.4-.113L62.513,258.41a.8.8,0,1,1,.807-1.388l15.833,9.135a.8.8,0,0,1,.291,1.1A.835.835,0,0,1,78.75,267.658Z" transform="translate(-62.111 -256.911)" fill="#819aaa"/>
    </g>
    <g id="Grupo_1189131" data-name="Grupo 1189131" transform="translate(40.859 16.033)">
      <path id="Trazado_1085584" data-name="Trazado 1085584" d="M195.713,84.662a4.969,4.969,0,0,1-2.55-.694,5.106,5.106,0,0,1-2.389-3.115,5.116,5.116,0,1,1,6.262,3.631A5.229,5.229,0,0,1,195.713,84.662Zm.016-8.635a3.614,3.614,0,0,0-.92.129,3.406,3.406,0,1,0,.92-.129Z" transform="translate(-190.596 -74.396)" fill="#819aaa"/>
    </g>
  </g>
</svg>
