<svg xmlns="http://www.w3.org/2000/svg" xmlns:xlink="http://www.w3.org/1999/xlink" width="102" height="102" viewBox="0 0 102 102">
  <defs>
    <filter id="Elipse_13737" x="0" y="0" width="102" height="102" filterUnits="userSpaceOnUse">
      <feOffset dy="3" input="SourceAlpha"/>
      <feGaussianBlur stdDeviation="3" result="blur"/>
      <feFlood flood-opacity="0.161"/>
      <feComposite operator="in" in2="blur"/>
      <feComposite in="SourceGraphic"/>
    </filter>
  </defs>
  <g id="Grupo_1190490" data-name="Grupo 1190490" transform="translate(-800.5 -2540.587)">
    <g id="Grupo_1189087" data-name="Grupo 1189087" transform="translate(809.5 2546.587)">
      <g transform="matrix(1, 0, 0, 1, -9, -6)" filter="url(#Elipse_13737)">
        <circle id="Elipse_13737-2" data-name="Elipse 13737" cx="42" cy="42" r="42" transform="translate(9 6)" fill="#fff"/>
      </g>
    </g>
    <g id="restaurante" transform="translate(820.729 2564.587)">
      <g id="Grupo_1190282" data-name="Grupo 1190282" transform="translate(0 0)">
        <path id="Trazado_1091082" data-name="Trazado 1091082" d="M136.159,94.536a2.3,2.3,0,0,0,.249-2.134,5.468,5.468,0,0,0-5.069-3.476h-3.147V86.11a2.726,2.726,0,0,0,1.817-2.567v-1.33a1.393,1.393,0,0,0-1.391-1.391h-2.661a1.393,1.393,0,0,0-1.391,1.391v1.33a2.726,2.726,0,0,0,1.817,2.567v2.817h-5.724V82.414c.109-1.272-1.076-2.555-2-3.4V75.641a.9.9,0,1,0-1.809,0v3.373c-.92.883-2.031,1.936-2,3.4v6.513H109.13V86.11a2.726,2.726,0,0,0,1.817-2.567v-1.33a1.393,1.393,0,0,0-1.391-1.391H106.9a1.393,1.393,0,0,0-1.391,1.391v1.33a2.726,2.726,0,0,0,1.817,2.567v2.817h-3.1A5.468,5.468,0,0,0,99.154,92.4a2.344,2.344,0,0,0,2.149,3.135h11.59V97.61a2.663,2.663,0,0,0,2.66,2.66h1.323v12.12l-4.242,3.414a1.368,1.368,0,0,0,.794,2.444l8.708,0a1.365,1.365,0,0,0,.791-2.445l-4.241-3.4V100.27h1.323a2.663,2.663,0,0,0,2.66-2.66V94.632a.9.9,0,0,0-.9-.9H101.3c-.221-.049-.525-.075-.462-.673a3.648,3.648,0,0,1,3.381-2.319h27.115a3.648,3.648,0,0,1,3.381,2.319c.034.224.119.516-.462.673H126.08a.9.9,0,0,0,0,1.809h8.179a2.3,2.3,0,0,0,1.9-1ZM126.375,82.63H128.2v.912a.912.912,0,0,1-1.825,0V82.63Zm-19.062,0h1.825v.912a.912.912,0,0,1-1.825,0Zm7.419,33.808,3.043-2.449,3.053,2.445Zm6.128-20.9V97.61a.852.852,0,0,1-.851.851h-4.455a.852.852,0,0,1-.851-.851V95.537Zm-4.2-6.61V82.414c.689-2.58,1.865-1.594,2.186,0v6.513Z" transform="translate(-87.059 -74.736)" fill="#c5a07a"/>
        <path id="Trazado_1091083" data-name="Trazado 1091083" d="M14.612,162.115a3.2,3.2,0,0,0-.139-.316,2.953,2.953,0,0,0,3.5-2.781,2.784,2.784,0,0,0-2.781-2.781H5.563v-9.58a.9.9,0,1,0-1.809,0v9.7a1.688,1.688,0,0,0,1.686,1.686h9.752a.972.972,0,0,1,0,1.944H5.44a3.634,3.634,0,0,1-3.63-3.63V140.538a.972.972,0,1,1,1.944,0V142.4a.9.9,0,1,0,1.809,0v-1.858a2.781,2.781,0,1,0-5.563,0V156.36a5.446,5.446,0,0,0,4.97,5.418,3.27,3.27,0,0,0-.186.446L1.391,172.478a.9.9,0,1,0,1.718.568L6.5,162.792a1.445,1.445,0,0,1,1.375-.993h3.682a1.454,1.454,0,0,1,1.358.945l3.83,10.333a.935.935,0,0,0,1.163.534.9.9,0,0,0,.534-1.163Z" transform="translate(0 -130.155)" fill="#c5a07a"/>
        <path id="Trazado_1091084" data-name="Trazado 1091084" d="M375.331,156.36V140.538a2.781,2.781,0,1,0-5.563,0v15.7h-9.629a2.785,2.785,0,0,0-2.781,2.781,2.959,2.959,0,0,0,3.5,2.781,3.2,3.2,0,0,0-.139.316l-3.83,10.333a.9.9,0,0,0,.534,1.163.947.947,0,0,0,1.163-.534l3.83-10.333a1.454,1.454,0,0,1,1.358-.945h3.682a1.446,1.446,0,0,1,1.375.993l3.393,10.255a.9.9,0,0,0,1.718-.568l-3.393-10.254a3.266,3.266,0,0,0-.186-.446,5.5,5.5,0,0,0,4.97-5.418Zm-1.809,0a3.687,3.687,0,0,1-3.63,3.63h-9.752a.973.973,0,0,1,0-1.944h9.752a1.688,1.688,0,0,0,1.686-1.686V140.538a.972.972,0,1,1,1.944,0Z" transform="translate(-313.79 -130.155)" fill="#c5a07a"/>
      </g>
    </g>
  </g>
</svg>
