<svg xmlns="http://www.w3.org/2000/svg" xmlns:xlink="http://www.w3.org/1999/xlink" width="102" height="102" viewBox="0 0 102 102">
  <defs>
    <filter id="Elipse_13737" x="0" y="0" width="102" height="102" filterUnits="userSpaceOnUse">
      <feOffset dy="3" input="SourceAlpha"/>
      <feGaussianBlur stdDeviation="3" result="blur"/>
      <feFlood flood-opacity="0.161"/>
      <feComposite operator="in" in2="blur"/>
      <feComposite in="SourceGraphic"/>
    </filter>
  </defs>
  <g id="Grupo_1190487" data-name="Grupo 1190487" transform="translate(-176.5 -2539.587)">
    <g id="Grupo_1189090" data-name="Grupo 1189090" transform="translate(185.5 2545.587)">
      <g transform="matrix(1, 0, 0, 1, -9, -6)" filter="url(#Elipse_13737)">
        <circle id="Elipse_13737-2" data-name="Elipse 13737" cx="42" cy="42" r="42" transform="translate(9 6)" fill="#fff"/>
      </g>
    </g>
    <g id="caja-fuerte" transform="translate(202.705 2566.408)">
      <path id="Trazado_1091046" data-name="Trazado 1091046" d="M198.848,193.558a3.879,3.879,0,0,0,.421,1.011L197.8,196.04a.973.973,0,0,0,1.376,1.376l1.472-1.472a3.882,3.882,0,0,0,1.011.421v2.08a.973.973,0,0,0,1.945,0v-2.08a3.882,3.882,0,0,0,1.011-.421l1.472,1.472a.973.973,0,0,0,1.376-1.375l-1.472-1.472a3.879,3.879,0,0,0,.421-1.011h2.08a.973.973,0,1,0,0-1.945h-2.08a3.881,3.881,0,0,0-.421-1.011l1.472-1.472a.973.973,0,0,0-1.376-1.376l-1.472,1.472a3.883,3.883,0,0,0-1.011-.421v-2.08a.973.973,0,1,0-1.945,0v2.08a3.883,3.883,0,0,0-1.011.421l-1.472-1.472a.973.973,0,0,0-1.376,1.376l1.472,1.472a3.879,3.879,0,0,0-.421,1.011h-2.08a.973.973,0,1,0,0,1.945h2.08Zm3.779-2.93a1.957,1.957,0,1,1-1.957,1.957A1.959,1.959,0,0,1,202.628,190.628Z" transform="translate(-176.754 -171.105)" fill="#c5a07a"/>
      <path id="Trazado_1091047" data-name="Trazado 1091047" d="M166.371,167.068a10.738,10.738,0,1,0-10.738-10.738A10.75,10.75,0,0,0,166.371,167.068Zm0-19.531a8.793,8.793,0,1,1-8.793,8.793,8.8,8.8,0,0,1,8.793-8.793Z" transform="translate(-140.497 -134.85)" fill="#c5a07a"/>
      <path id="Trazado_1091048" data-name="Trazado 1091048" d="M81.174,75.306H43.089a.973.973,0,0,0-.973.973v2.934h-.981a.973.973,0,0,0-.973.973v5.859a.973.973,0,0,0,.973.973h.981V98.743h-.981a.973.973,0,0,0-.973.973v5.859a.973.973,0,0,0,.973.973h.981v2.934a.973.973,0,0,0,.973.973H81.174a.973.973,0,0,0,.973-.973v-33.2A.973.973,0,0,0,81.174,75.306ZM42.108,81.157h1.961v3.914H42.108Zm0,19.531h1.961V104.6H42.108Zm38.093,7.82H44.061v-1.961h.981a.973.973,0,0,0,.973-.973V99.715a.973.973,0,0,0-.973-.973h-.981V87.016h.981a.973.973,0,0,0,.973-.973V80.185a.973.973,0,0,0-.973-.973h-.981V77.251H80.2Z" transform="translate(-36.257 -71.4)" fill="#c5a07a"/>
      <path id="Trazado_1091049" data-name="Trazado 1091049" d="M45.905,35.143H3.89A3.9,3.9,0,0,0,0,39.033V74.212A3.9,3.9,0,0,0,3.89,78.1H45.905a3.9,3.9,0,0,0,3.89-3.89V39.033A3.9,3.9,0,0,0,45.905,35.143ZM47.85,74.212a1.947,1.947,0,0,1-1.945,1.945H3.89a1.947,1.947,0,0,1-1.945-1.945V39.033A1.947,1.947,0,0,1,3.89,37.088H45.905a1.947,1.947,0,0,1,1.945,1.945Z" transform="translate(0 -35.143)" fill="#c5a07a"/>
    </g>
  </g>
</svg>
