<svg xmlns="http://www.w3.org/2000/svg" xmlns:xlink="http://www.w3.org/1999/xlink" width="102" height="102" viewBox="0 0 102 102">
  <defs>
    <filter id="Elipse_13737" x="0" y="0" width="102" height="102" filterUnits="userSpaceOnUse">
      <feOffset dy="3" input="SourceAlpha"/>
      <feGaussianBlur stdDeviation="3" result="blur"/>
      <feFlood flood-opacity="0.161"/>
      <feComposite operator="in" in2="blur"/>
      <feComposite in="SourceGraphic"/>
    </filter>
  </defs>
  <g id="Grupo_1190488" data-name="Grupo 1190488" transform="translate(-1112.5 -2427.587)">
    <g id="Grupo_1189085" data-name="Grupo 1189085" transform="translate(1121.5 2433.587)">
      <g transform="matrix(1, 0, 0, 1, -9, -6)" filter="url(#Elipse_13737)">
        <circle id="Elipse_13737-2" data-name="Elipse 13737" cx="42" cy="42" r="42" transform="translate(9 6)" fill="#fff"/>
      </g>
    </g>
    <g id="viajar" transform="translate(1136.152 2448.938)">
      <path id="Trazado_1091053" data-name="Trazado 1091053" d="M19.278,47.547a4.272,4.272,0,0,1,0-8.545.854.854,0,1,1,0,1.709,2.563,2.563,0,0,0,0,5.127.854.854,0,1,1,0,1.709Z" transform="translate(-2.179 -5.678)" fill="#c5a07a"/>
      <path id="Trazado_1091054" data-name="Trazado 1091054" d="M41.862,48.129a.854.854,0,1,1,0-1.709.854.854,0,0,0,0-1.709.854.854,0,1,1,0-1.709,2.563,2.563,0,0,1,0,5.127Z" transform="translate(-5.964 -6.26)" fill="#c5a07a"/>
      <path id="Trazado_1091055" data-name="Trazado 1091055" d="M41.853,50.965a.854.854,0,1,1,0-1.709,4.271,4.271,0,0,0,0-8.543.854.854,0,1,1,0-1.709,5.98,5.98,0,0,1,0,11.961Z" transform="translate(-5.962 -5.678)" fill="#c5a07a"/>
      <path id="Trazado_1091056" data-name="Trazado 1091056" d="M46.979,17.833a.854.854,0,0,1-.854-.854,4.277,4.277,0,0,0-4.272-4.271.854.854,0,1,1,0-1.709,5.988,5.988,0,0,1,5.981,5.98.854.854,0,0,1-.854.854Z" transform="translate(-5.962 -1.602)" fill="#c5a07a"/>
      <path id="Trazado_1091057" data-name="Trazado 1091057" d="M38.66,44.711H19.86a.854.854,0,1,1,0-1.709h18.8a.854.854,0,1,1,0,1.709Z" transform="translate(-2.762 -6.26)" fill="#c5a07a"/>
      <path id="Trazado_1091058" data-name="Trazado 1091058" d="M38.653,40.711H19.86a.854.854,0,1,1,0-1.709H38.653a.854.854,0,1,1,0,1.709Z" transform="translate(-2.762 -5.678)" fill="#c5a07a"/>
      <path id="Trazado_1091059" data-name="Trazado 1091059" d="M38.944,12.707H21.856a.854.854,0,0,1,0-1.709H38.944a.854.854,0,0,1,0,1.709Z" transform="translate(-3.052 -1.602)" fill="#c5a07a"/>
      <path id="Trazado_1091060" data-name="Trazado 1091060" d="M38.66,48.711H19.86a.854.854,0,1,1,0-1.709h18.8a.854.854,0,1,1,0,1.709Z" transform="translate(-2.762 -6.842)" fill="#c5a07a"/>
      <path id="Trazado_1091061" data-name="Trazado 1091061" d="M38.66,52.711H19.86a.854.854,0,1,1,0-1.709h18.8a.854.854,0,1,1,0,1.709Z" transform="translate(-2.762 -7.424)" fill="#c5a07a"/>
      <path id="Trazado_1091062" data-name="Trazado 1091062" d="M19.86,52.129a.854.854,0,0,1-.854-.854V47.856a.854.854,0,1,1,1.709,0v3.418a.854.854,0,0,1-.854.854Z" transform="translate(-2.762 -6.842)" fill="#c5a07a"/>
      <path id="Trazado_1091063" data-name="Trazado 1091063" d="M47.853,42.635A.854.854,0,0,1,47,41.781V17.852a.854.854,0,1,1,1.709,0V41.781a.854.854,0,0,1-.854.854Z" transform="translate(-6.836 -2.475)" fill="#c5a07a"/>
      <path id="Trazado_1091064" data-name="Trazado 1091064" d="M15.856,17.833A.854.854,0,0,1,15,16.978,5.988,5.988,0,0,1,20.983,11a.854.854,0,0,1,0,1.709,4.277,4.277,0,0,0-4.272,4.271.854.854,0,0,1-.854.854Z" transform="translate(-2.179 -1.602)" fill="#c5a07a"/>
      <path id="Trazado_1091065" data-name="Trazado 1091065" d="M15.856,40.926A.854.854,0,0,1,15,40.072V17.852a.854.854,0,1,1,1.709,0v22.22a.854.854,0,0,1-.854.854Z" transform="translate(-2.179 -2.475)" fill="#c5a07a"/>
      <path id="Trazado_1091066" data-name="Trazado 1091066" d="M5.337,42.95a.854.854,0,0,1-.71-.378A27.345,27.345,0,0,1,46.675,8.009a.854.854,0,1,1-1.208,1.208,25.636,25.636,0,0,0-39.421,32.4.854.854,0,0,1-.708,1.331Z" transform="translate(0.005 -0.001)" fill="#c5a07a"/>
      <path id="Trazado_1091067" data-name="Trazado 1091067" d="M28.663,56.671a27.25,27.25,0,0,1-19.334-8,.854.854,0,1,1,1.208-1.208,25.637,25.637,0,0,0,39.421-32.4.854.854,0,1,1,1.419-.953,27.332,27.332,0,0,1-22.714,42.56Z" transform="translate(-1.317 -2)" fill="#c5a07a"/>
      <path id="Trazado_1091068" data-name="Trazado 1091068" d="M53.241,10.789H50.118a.854.854,0,0,1,0-1.709h3.123a.854.854,0,1,1,0,1.709Z" transform="translate(-7.165 -1.323)" fill="#c5a07a"/>
      <path id="Trazado_1091069" data-name="Trazado 1091069" d="M53.773,10.257a.854.854,0,0,1-.854-.854V6.278a.854.854,0,1,1,1.709,0V9.4a.854.854,0,0,1-.854.854Z" transform="translate(-7.697 -0.791)" fill="#c5a07a"/>
      <path id="Trazado_1091070" data-name="Trazado 1091070" d="M13.057,54.63H9.934a.854.854,0,0,1,0-1.709h3.123a.854.854,0,0,1,0,1.709Z" transform="translate(-1.317 -7.703)" fill="#c5a07a"/>
      <path id="Trazado_1091071" data-name="Trazado 1091071" d="M9.934,57.753a.854.854,0,0,1-.854-.854V53.774a.854.854,0,1,1,1.709,0V56.9a.854.854,0,0,1-.854.854Z" transform="translate(-1.317 -7.703)" fill="#c5a07a"/>
    </g>
  </g>
</svg>
