<svg xmlns="http://www.w3.org/2000/svg" width="88.333" height="112.469" viewBox="0 0 88.333 112.469">
  <g id="telefono-inteligente" transform="translate(-7)">
    <g id="Grupo_1189051" data-name="Grupo 1189051" transform="translate(7 0)">
      <path id="Trazado_1085506" data-name="Trazado 1085506" d="M59.351,94.512H15.959A9,9,0,0,1,7,85.553V7.73A7.685,7.685,0,0,1,14.73,0H59.351A9,9,0,0,1,68.31,8.959V85.553A9,9,0,0,1,59.351,94.512Z" transform="translate(-7 0)" fill="#9494a0"/>
      <path id="Trazado_1085507" data-name="Trazado 1085507" d="M58.256,6.057V81.948a1.574,1.574,0,0,1-1.581,1.581H12.581A1.574,1.574,0,0,1,11,81.948V6.057A1.76,1.76,0,0,1,12.757,4.3H23.3l1.757,4.216a3.318,3.318,0,0,0,3.162,1.932H41.04A3.5,3.5,0,0,0,44.2,8.516l1.932-4.04h10.54c.878-.176,1.581.7,1.581,1.581Z" transform="translate(-3.973 3.254)" fill="#b9eded"/>
      <path id="Trazado_1085508" data-name="Trazado 1085508" d="M59.91,8.959V85.553a9,9,0,0,1-8.959,8.959H18.1C37.424,79.58,51.127,36.54,39.181,0h11.77A9,9,0,0,1,59.91,8.959Z" transform="translate(1.4 0)" opacity="0.1"/>
    </g>
    <g id="Grupo_1189053" data-name="Grupo 1189053" transform="translate(32.833 47.858)">
      <path id="Trazado_1085509" data-name="Trazado 1085509" d="M66.493,33.141a5.444,5.444,0,0,0-3.865,7.554,5.513,5.513,0,1,0-10.189,4.216A5.513,5.513,0,1,0,42.25,49.127L34.872,31.033a5.934,5.934,0,0,0-6.5-3.689A5.444,5.444,0,0,0,24.507,34.9l14.405,35.31-8.081-4.04c-2.459-1.23-5.8-.878-7.554,1.23a6.079,6.079,0,0,0,.878,8.959l13,9.838a26.577,26.577,0,0,0,26,3.338L71.06,86.37A21.092,21.092,0,0,0,82.655,58.965L73.52,36.479a7.009,7.009,0,0,0-7.027-3.338Z" transform="translate(-21.705 -27.243)" fill="#f0f0fc"/>
      <g id="Grupo_1189052" data-name="Grupo 1189052" transform="translate(20.054 7.655)">
        <path id="Trazado_1085510" data-name="Trazado 1085510" d="M38.53,50.805c-.176,0-.351.176-.527.176A1.336,1.336,0,0,1,36.6,49.927L33.436,42.2v-.176A5.834,5.834,0,0,1,34.49,36.4l5.095,12.473a1.677,1.677,0,0,1-1.054,1.932Z" transform="translate(-33.121 -27.968)" fill="#cbcbd7"/>
        <path id="Trazado_1085511" data-name="Trazado 1085511" d="M44.5,48.481a.645.645,0,0,1-.527.176A1.688,1.688,0,0,1,42.4,47.6l-3.162-7.73V39.7a5.8,5.8,0,0,1,1.23-5.8l5.095,12.473A1.706,1.706,0,0,1,44.5,48.481Z" transform="translate(-28.73 -29.86)" fill="#cbcbd7"/>
        <path id="Trazado_1085512" data-name="Trazado 1085512" d="M50.4,46.181c-.176,0-.351.176-.527.176A1.336,1.336,0,0,1,48.471,45.3L45.133,37.4v-.176a5.406,5.406,0,0,1,1.23-5.622l5.095,12.473A1.886,1.886,0,0,1,50.4,46.181Z" transform="translate(-24.265 -31.6)" fill="#cbcbd7"/>
      </g>
      <path id="Trazado_1085513" data-name="Trazado 1085513" d="M67.61,80.094,59.7,83.256a26.633,26.633,0,0,1-26-3.338L25.8,73.945c14.054,4.568,29.162.351,38.121-10.54,7.2-8.608,8.608-19.5,8.432-27.405l6.676,16.689A21.01,21.01,0,0,1,67.61,80.094Z" transform="translate(-18.606 -20.615)" opacity="0.1"/>
    </g>
  </g>
</svg>
