<svg xmlns="http://www.w3.org/2000/svg" xmlns:xlink="http://www.w3.org/1999/xlink" width="88.348" height="88.348" viewBox="0 0 88.348 88.348">
  <defs>
    <filter id="Elipse_13737" x="0" y="0" width="88.348" height="88.348" filterUnits="userSpaceOnUse">
      <feOffset dy="3" input="SourceAlpha"/>
      <feGaussianBlur stdDeviation="3" result="blur"/>
      <feFlood flood-opacity="0.161"/>
      <feComposite operator="in" in2="blur"/>
      <feComposite in="SourceGraphic"/>
    </filter>
  </defs>
  <g id="Grupo_1190483" data-name="Grupo 1190483" transform="translate(-385.5 -4366.5)">
    <g id="Grupo_1190317" data-name="Grupo 1190317" transform="translate(394.5 4372.5)">
      <g transform="matrix(1, 0, 0, 1, -9, -6)" filter="url(#Elipse_13737)">
        <circle id="Elipse_13737-2" data-name="Elipse 13737" cx="35.174" cy="35.174" r="35.174" transform="translate(9 6)" fill="#fff"/>
      </g>
    </g>
    <g id="contrato" transform="translate(412.431 4387.466)">
      <g id="Grupo_1190328" data-name="Grupo 1190328" transform="translate(0.018)">
        <g id="Grupo_1190327" data-name="Grupo 1190327">
          <path id="Trazado_1091109" data-name="Trazado 1091109" d="M39.051,12.609a3.526,3.526,0,0,0-4.981,0l-3.532,3.535v-9.3a3.5,3.5,0,0,0-1.032-2.49l-3.32-3.32A3.5,3.5,0,0,0,23.7,0H3.54A3.526,3.526,0,0,0,.018,3.522V36.546A3.526,3.526,0,0,0,3.54,40.068H27.017a3.526,3.526,0,0,0,3.522-3.522V26.109l8.512-8.519A3.52,3.52,0,0,0,39.051,12.609ZM23.5,2.348a1.281,1.281,0,0,1,1.031.344l3.32,3.32a1.281,1.281,0,0,1,.344,1.031H23.5Zm4.7,34.2a1.175,1.175,0,0,1-1.174,1.174H3.54a1.175,1.175,0,0,1-1.174-1.174V3.522A1.175,1.175,0,0,1,3.54,2.348H21.148V8.217a1.174,1.174,0,0,0,1.174,1.174h5.869v9.1L24.727,21.96,23.068,23.62a1.174,1.174,0,0,0-.284.459l-1.66,4.98a1.174,1.174,0,0,0,1.485,1.485l4.98-1.66a1.173,1.173,0,0,0,.459-.284l.142-.142v8.089Zm-2.633-12.1,1.66,1.66-.634.634-2.49.83.83-2.49Zm3.32,0-1.66-1.66,5.643-5.648,1.66,1.66ZM37.39,15.93l-1.21,1.211-1.66-1.66,1.21-1.212a1.174,1.174,0,1,1,1.66,1.66Z" transform="translate(-0.018 0)" fill="#c5a07a"/>
        </g>
      </g>
      <g id="Grupo_1190330" data-name="Grupo 1190330" transform="translate(4.713 11.739)">
        <g id="Grupo_1190329" data-name="Grupo 1190329">
          <path id="Trazado_1091110" data-name="Trazado 1091110" d="M77.626,150H61.192a1.174,1.174,0,0,0,0,2.348H77.626a1.174,1.174,0,0,0,0-2.348Z" transform="translate(-60.018 -150)" fill="#c5a07a"/>
        </g>
      </g>
      <g id="Grupo_1190332" data-name="Grupo 1190332" transform="translate(4.713 16.434)">
        <g id="Grupo_1190331" data-name="Grupo 1190331">
          <path id="Trazado_1091111" data-name="Trazado 1091111" d="M72.931,210H61.192a1.174,1.174,0,1,0,0,2.348H72.931a1.174,1.174,0,0,0,0-2.348Z" transform="translate(-60.018 -210)" fill="#c5a07a"/>
        </g>
      </g>
      <g id="Grupo_1190334" data-name="Grupo 1190334" transform="translate(4.713 21.13)">
        <g id="Grupo_1190333" data-name="Grupo 1190333">
          <path id="Trazado_1091112" data-name="Trazado 1091112" d="M72.931,270H61.192a1.174,1.174,0,1,0,0,2.348H72.931a1.174,1.174,0,1,0,0-2.348Z" transform="translate(-60.018 -270)" fill="#c5a07a"/>
        </g>
      </g>
      <g id="Grupo_1190336" data-name="Grupo 1190336" transform="translate(4.713 25.825)">
        <g id="Grupo_1190335" data-name="Grupo 1190335">
          <path id="Trazado_1091113" data-name="Trazado 1091113" d="M72.931,330H61.192a1.174,1.174,0,0,0,0,2.348H72.931a1.174,1.174,0,0,0,0-2.348Z" transform="translate(-60.018 -330)" fill="#c5a07a"/>
        </g>
      </g>
      <g id="Grupo_1190338" data-name="Grupo 1190338" transform="translate(14.104 33.025)">
        <g id="Grupo_1190337" data-name="Grupo 1190337">
          <path id="Trazado_1091114" data-name="Trazado 1091114" d="M188.235,422h-7.043a1.174,1.174,0,1,0,0,2.348h7.043a1.174,1.174,0,1,0,0-2.348Z" transform="translate(-180.018 -422)" fill="#c5a07a"/>
        </g>
      </g>
    </g>
  </g>
</svg>
